<?xml version="1.0" encoding="UTF-8" standalone="no"?>
<!DOCTYPE svg PUBLIC "-//W3C//DTD SVG 20010904//EN"
              "http://www.w3.org/TR/2001/REC-SVG-20010904/DTD/svg10.dtd">

<svg xmlns="http://www.w3.org/2000/svg"
     width="0.853333in" height="0.853333in"
     viewBox="0 0 256 256">
  <path class="svg-trademark"
        fill="white" stroke="black" stroke-width="1"
        d="M 107.00,35.44
           C 126.73,32.91 150.90,36.97 171.00,37.00
             171.00,37.00 194.00,39.91 194.00,39.91
             201.47,40.46 200.57,40.26 208.00,42.13
             216.86,44.36 220.42,47.05 219.68,57.00
             219.68,57.00 219.00,67.00 219.00,67.00
             219.00,67.00 219.00,139.00 219.00,139.00
             219.00,139.12 219.62,158.62 216.02,164.00
             205.99,183.28 172.74,198.22 153.00,206.13
             147.17,208.47 132.97,213.17 127.00,213.67
             117.90,214.45 98.66,206.56 90.00,202.85
             73.19,195.65 46.30,183.08 36.80,166.99
             33.93,162.12 33.03,157.55 33.00,152.00
             33.00,152.00 32.11,97.00 32.11,97.00
             32.11,97.00 32.11,78.00 32.11,78.00
             32.11,78.00 32.11,61.00 32.11,61.00
             32.10,57.97 32.88,48.67 34.74,46.42
             38.73,41.55 53.84,40.40 60.00,39.98
             60.00,39.98 80.00,37.00 80.00,37.00
             91.82,36.87 94.86,37.67 107.00,35.44 Z
           M 166.00,74.17
           C 166.00,74.17 194.49,77.43 200.00,79.03
             202.21,79.68 206.31,81.43 208.40,79.94
             210.09,78.73 209.96,75.84 210.00,74.00
             210.00,74.00 210.00,65.00 210.00,65.00
             209.99,61.61 210.25,57.12 208.15,54.27
             204.94,49.94 185.65,46.50 180.00,46.09
             144.09,43.46 121.58,41.29 85.00,44.83
             85.00,44.83 55.00,48.40 55.00,48.40
             51.67,49.07 45.94,50.06 43.60,52.65
             41.66,54.79 42.01,58.29 42.00,61.00
             42.00,61.00 42.00,74.00 42.00,74.00
             42.04,75.81 41.90,78.73 43.60,79.83
             45.15,80.95 48.29,80.15 50.00,79.83
             50.00,79.83 66.00,76.42 66.00,76.42
             66.00,76.42 104.00,73.00 104.00,73.00
             104.00,73.00 124.00,73.00 124.00,73.00
             130.38,73.00 153.55,73.73 153.55,73.64
             153.82,73.64 166.00,74.17 166.00,74.17 Z
           M 80.50,62.31
           C 80.69,62.06 80.56,67.38 80.56,67.38
             80.56,67.38 89.62,67.25 89.56,67.25
             89.56,67.25 89.50,72.19 89.50,72.12
             89.56,72.12 73.00,72.25 72.88,72.25
             73.12,72.25 73.06,50.19 73.06,50.19
             73.12,50.19 89.06,50.12 89.06,50.12
             89.12,50.12 89.12,54.46 89.12,54.44
             89.12,54.44 80.44,54.62 80.50,54.50
             80.50,54.50 80.50,57.56 80.50,57.56
             80.44,57.56 89.38,57.62 89.38,57.62
             89.38,57.69 89.44,62.67 89.44,62.56
             89.44,62.56 80.56,62.44 80.50,62.31 Z
           M 69.91,58.55
           C 68.73,68.73 57.64,66.00 57.55,66.27
             57.45,66.18 57.45,75.36 57.45,75.18
             55.48,75.34 50.64,75.45 50.55,75.45
             50.64,75.55 50.54,55.45 50.73,53.36
             50.73,53.55 69.09,49.91 69.91,58.55 Z
           M 192.91,54.00
           C 193.00,54.18 200.36,54.27 200.36,54.27
             200.55,54.18 200.55,75.45 200.36,75.27
             200.55,75.45 193.00,75.18 192.82,75.00
             192.82,75.27 193.00,54.09 192.91,54.00 Z
           M 63.45,59.91
           C 63.73,57.64 57.64,58.18 57.64,58.18
             57.73,58.18 57.82,62.00 57.82,62.00
             57.84,62.36 63.36,62.45 63.45,59.91 Z
           M 190.00,87.00
           C 186.14,85.87 180.00,84.80 176.00,85.10
             169.72,85.56 149.85,96.20 143.00,99.46
             138.67,101.53 128.38,107.64 124.00,106.84
             121.67,106.41 115.57,103.18 113.00,102.02
             113.00,102.02 85.00,88.59 85.00,88.59
             82.83,87.53 80.36,86.25 78.00,85.75
             74.06,84.91 64.18,85.66 61.00,88.00
             61.00,88.00 71.00,93.14 71.00,93.14
             74.26,94.92 80.39,97.47 81.85,101.00
             83.23,104.36 79.51,108.51 75.83,107.59
             75.83,107.59 52.00,95.14 52.00,95.14
             49.69,93.90 45.07,90.87 43.13,94.31
             41.28,97.60 45.78,100.22 48.02,101.58
             48.02,101.58 64.00,110.40 64.00,110.40
             65.98,111.47 70.10,113.54 71.29,115.38
             73.36,118.53 70.26,122.16 66.98,122.47
             63.82,122.78 58.00,118.78 55.00,117.27
             50.82,115.17 46.60,112.92 42.00,112.00
             42.13,121.74 46.02,121.78 54.00,126.07
             56.85,127.61 62.51,130.38 62.83,134.02
             63.13,137.37 60.02,139.17 57.00,138.36
             53.48,137.43 42.57,128.30 41.42,135.14
             40.95,137.98 42.99,140.33 45.11,141.87
             49.43,145.02 58.09,148.08 61.49,152.21
             62.82,154.17 64.89,159.31 61.49,160.75
             59.21,161.86 53.27,157.67 51.00,156.34
             48.18,154.68 46.06,153.28 43.00,152.00
             44.60,166.20 63.76,178.58 75.00,185.58
             84.48,191.48 92.88,194.82 103.00,199.15
             112.38,203.16 119.53,206.92 130.00,205.90
             133.49,205.56 142.31,202.06 146.00,200.65
             157.16,196.41 165.65,192.17 176.00,186.28
             187.67,179.64 206.87,166.00 208.82,151.73
             208.82,151.73 188.73,162.09 188.73,162.09
             188.73,162.36 188.55,150.82 188.64,150.73
             188.55,150.64 209.15,143.79 209.64,139.18
             209.55,139.27 209.82,131.45 209.55,131.27
             209.45,131.45 189.18,140.29 189.18,140.36
             189.09,140.45 188.91,133.73 188.55,130.18
             188.82,130.36 208.82,119.73 208.91,119.73
             208.64,120.09 210.00,112.20 210.00,109.00
             205.81,110.03 196.20,115.95 192.09,118.36
             189.53,119.87 183.55,123.55 183.55,123.55
             183.64,123.73 178.45,115.45 178.55,115.36
             178.55,115.36 203.00,102.00 203.00,102.00
             205.18,100.82 208.35,99.42 209.16,96.87
             210.11,93.84 208.04,90.82 203.98,91.70
             203.98,91.70 177.00,105.19 177.00,105.19
             172.14,106.83 168.93,103.15 170.17,100.12
             171.03,97.99 174.09,96.58 176.00,95.54
             180.81,92.93 186.22,91.03 190.00,87.00 Z
           M 93.04,99.83
           C 97.71,99.29 110.82,110.18 110.54,110.04
             110.16,114.38 98.96,126.56 97.03,132.00
             90.83,149.46 113.87,160.33 128.00,159.99
             141.15,159.67 159.83,148.26 154.45,133.00
             151.99,126.00 141.47,113.29 140.50,109.38
             140.63,109.34 159.12,99.88 158.91,99.92
             162.90,101.04 168.02,110.47 170.42,114.00
             181.69,130.54 190.15,143.35 178.96,163.00
             167.92,182.39 142.84,189.24 122.00,189.00
             98.83,188.73 68.04,173.41 68.03,147.00
             68.02,133.28 72.20,129.07 78.99,118.00
             82.27,112.65 87.68,102.70 93.04,99.83 Z
           M 162.00,120.00
           C 162.27,119.91 163.27,111.91 154.00,115.00
             153.09,124.36 162.18,119.91 162.00,120.00 Z
           M 89.00,116.00
           C 89.20,116.57 89.20,117.48 90.00,118.41
             93.50,122.47 98.45,115.42 91.94,115.46
             91.94,115.46 89.00,116.00 89.00,116.00 Z
           M 82.04,135.71
           C 75.48,139.48 80.39,143.78 84.85,142.67
             88.77,141.70 88.82,135.45 82.04,135.71 Z
           M 168.15,136.66
           C 162.98,140.24 167.84,143.39 170.85,142.34
             174.02,141.25 174.61,136.19 168.15,136.66 Z
           M 91.04,158.66
           C 84.58,161.01 87.77,166.55 91.98,166.23
             96.31,165.90 98.41,159.66 91.04,158.66 Z
           M 156.32,159.60
           C 151.44,163.84 157.46,167.43 161.70,165.26
             165.07,163.54 163.50,158.14 156.32,159.60 Z
           M 123.02,169.43
           C 113.35,173.53 120.63,181.72 128.00,180.19
             132.66,179.22 135.32,175.04 131.68,171.43
             129.16,168.93 126.23,169.02 123.02,169.43 Z
           M 115.40,53.76
           C 115.40,53.76 109.73,47.18 109.73,47.18
             109.73,47.18 99.91,47.18 99.91,47.18
             99.91,47.18 92.91,54.91 92.91,54.91
             92.91,54.91 92.73,64.27 92.73,64.27
             92.73,64.27 95.91,68.82 95.91,68.82
             95.91,68.82 99.64,70.73 99.64,70.73
             99.64,70.73 103.82,71.27 103.82,71.27
             103.82,71.27 109.09,69.82 109.09,69.82
             109.09,69.82 113.18,66.45 113.18,66.45
             113.18,66.45 115.27,62.18 115.27,62.18
             115.27,62.18 115.55,57.64 115.55,57.64
             115.55,57.64 103.45,57.64 103.45,57.64
             103.45,57.64 103.36,61.00 103.36,61.00
             103.36,61.00 108.27,61.18 108.27,61.18
             108.27,61.18 108.36,64.00 108.36,64.00
             108.36,64.00 106.36,65.82 106.36,65.91
             106.36,66.00 103.73,66.45 103.73,66.45
             103.73,66.45 101.00,64.73 101.00,64.73
             101.00,64.73 98.45,62.00 98.45,62.00
             98.45,62.00 97.64,57.36 97.64,57.36
             97.64,57.36 99.64,53.91 99.64,53.91
             99.64,53.91 101.88,51.78 101.88,51.78
             101.88,51.78 107.28,51.81 107.28,51.81
             107.28,51.81 108.88,54.88 108.88,54.88
             108.88,54.88 115.42,54.84 115.42,54.84
             115.42,54.84 115.40,53.76 115.40,53.76 Z
           M 118.36,68.55
           C 118.36,68.55 123.00,68.45 123.00,68.45
             123.00,68.45 125.09,64.36 125.09,64.36
             125.09,64.36 132.00,64.27 132.00,64.27
             132.00,64.27 135.82,68.36 135.82,68.36
             135.82,68.36 140.55,68.55 140.55,68.64
             140.55,68.73 131.82,47.73 131.82,47.73
             131.82,47.73 126.64,47.45 126.64,47.45
             126.64,47.45 118.36,68.55 118.36,68.55 Z
           M 127.09,60.82
           C 127.09,60.82 132.18,60.64 132.18,60.64
             132.18,60.64 130.64,55.45 130.64,55.45
             130.64,55.45 128.42,55.51 128.42,55.51
             128.42,55.51 127.09,60.82 127.09,60.82 Z
           M 159.75,54.88
           C 159.75,54.88 164.62,55.00 164.62,55.00
             164.62,55.00 163.31,50.88 163.31,50.88
             163.31,50.88 158.81,47.50 158.81,47.50
             158.81,47.50 150.88,47.12 150.88,47.12
             150.88,47.12 146.50,50.75 146.50,50.75
             146.50,50.75 144.44,54.38 144.44,54.38
             144.44,54.38 146.19,57.56 146.19,57.56
             146.19,57.56 149.06,59.19 149.06,59.19
             149.06,59.19 152.38,61.62 152.38,61.62
             152.38,61.62 156.19,62.25 156.19,62.25
             156.19,62.25 158.25,63.44 158.25,63.44
             158.25,63.44 158.31,65.56 158.25,65.62
             158.19,65.69 156.62,67.50 156.62,67.56
             156.62,67.62 153.19,67.19 153.19,67.19
             153.19,67.19 151.00,65.12 151.00,65.12
             151.00,65.12 149.94,63.69 149.94,63.69
             149.94,63.69 147.25,63.88 147.19,63.88
             147.12,63.88 145.00,63.94 145.00,63.94
             145.00,63.94 144.94,66.62 145.00,66.69
             145.06,66.75 145.75,68.50 145.75,68.50
             145.75,68.50 148.88,70.06 148.88,70.06
             148.88,70.06 151.38,71.44 151.38,71.44
             151.38,71.44 155.94,72.00 155.94,72.00
             155.94,72.00 159.94,71.62 159.94,71.62
             159.94,71.62 162.75,68.94 162.75,68.94
             162.75,68.94 164.12,65.38 164.12,65.38
             164.12,65.38 164.56,61.31 164.56,61.31
             164.56,61.31 161.62,58.75 161.56,58.75
             161.50,58.75 158.06,57.38 158.06,57.38
             158.06,57.38 153.56,57.00 153.56,57.00
             153.56,57.00 151.56,55.25 151.56,55.25
             151.56,55.25 151.75,52.00 151.75,52.00
             151.75,52.00 154.38,50.94 154.38,50.94
             154.38,50.94 157.69,51.56 157.69,51.56
             157.69,51.56 159.75,54.88 159.75,54.88 Z
           M 184.27,58.18
           C 184.27,58.18 188.64,58.09 188.73,58.09
             188.82,58.09 188.45,54.55 188.27,54.55
             188.09,54.55 184.36,51.00 184.36,51.00
             184.36,51.00 178.18,50.09 178.09,50.09
             178.00,50.09 173.09,50.82 173.00,50.82
             172.91,50.82 169.45,55.09 169.45,55.09
             169.45,55.09 170.45,60.45 170.45,60.45
             170.45,60.45 174.19,63.25 174.19,63.25
             174.19,63.25 178.64,64.18 178.82,64.18
             179.00,64.18 182.64,65.91 182.64,65.91
             182.64,65.91 181.36,68.55 181.45,68.55
             181.55,68.55 177.09,68.82 177.09,68.73
             177.09,68.64 172.56,66.38 172.56,66.38
             172.56,66.38 169.06,64.50 169.06,64.50
             169.06,64.50 168.81,71.38 168.81,71.38
             168.81,71.38 171.82,72.36 171.82,72.36
             171.82,72.36 176.36,73.00 176.36,73.00
             176.36,73.00 180.18,73.73 180.18,73.73
             180.18,73.73 185.09,72.91 185.09,72.91
             185.09,72.91 188.27,70.45 188.27,70.45
             188.27,70.45 189.27,66.18 189.27,66.18
             189.27,66.18 186.36,62.73 186.36,62.73
             186.36,62.73 182.55,60.91 182.55,60.91
             182.55,60.91 178.64,60.36 178.55,60.36
             178.45,60.36 175.91,58.18 175.91,58.18
             175.91,58.18 176.00,55.45 176.00,55.45
             176.00,55.45 179.36,54.18 179.36,54.18
             179.36,54.18 182.18,55.91 182.18,55.91
             182.18,55.91 184.27,58.18 184.27,58.18 Z" />
</svg>
