<?xml version="1.0" encoding="UTF-8" standalone="no"?>
<!DOCTYPE svg PUBLIC "-//W3C//DTD SVG 20010904//EN"
              "http://www.w3.org/TR/2001/REC-SVG-20010904/DTD/svg10.dtd">

<svg xmlns="http://www.w3.org/2000/svg"
     width="0.853333in" height="0.853333in"
     viewBox="0 0 256 256">
  <path class="svg-trademark"
        fill="white" stroke="black" stroke-width="1"
        d="M 104.00,47.80
           C 120.69,42.08 127.37,39.66 145.00,44.37
             151.08,46.00 213.36,68.10 219.00,72.52
             226.36,78.28 244.37,133.00 244.37,133.00
             247.22,143.35 248.40,141.72 245.03,153.00
             243.89,156.85 243.80,158.54 241.14,161.83
             241.14,161.83 218.00,184.09 218.00,184.09
             213.21,188.53 195.21,205.59 191.00,208.08
             186.69,210.63 174.08,214.76 169.00,215.31
             164.74,216.23 148.46,217.38 145.43,215.31
             143.28,213.43 139.05,202.98 137.91,200.00
             136.52,196.35 132.46,187.76 135.60,184.60
             137.65,182.53 142.22,183.11 145.00,182.83
             152.83,182.04 152.14,180.45 163.00,179.96
             163.00,179.96 192.00,176.17 192.00,176.17
             199.83,175.40 213.04,174.23 220.00,171.00
             220.00,171.00 197.00,165.82 197.00,165.82
             194.49,165.28 189.75,165.29 188.62,162.69
             186.84,158.60 194.47,149.42 196.91,146.00
             196.91,146.00 228.00,101.00 228.00,101.00
             228.00,101.00 207.00,110.51 207.00,110.51
             204.33,111.83 200.15,115.01 197.13,114.21
             194.27,113.46 188.39,102.90 186.74,100.00
             186.74,100.00 162.00,56.00 162.00,56.00
             160.25,61.39 158.65,77.52 154.72,79.98
             150.71,82.49 144.12,79.43 140.00,78.51
             140.00,78.51 133.00,77.39 133.00,77.39
             133.00,77.39 71.00,64.00 71.00,64.00
             74.87,69.14 80.82,72.95 85.98,76.80
             88.29,78.52 91.49,80.45 90.34,83.88
             89.26,87.13 76.49,92.66 73.00,94.54
             73.00,94.54 25.00,122.00 25.00,122.00
             25.00,122.00 46.00,122.00 46.00,122.00
             49.15,122.01 54.00,121.45 55.31,125.15
             55.93,126.89 54.47,142.16 54.16,145.00
             54.16,145.00 52.00,170.00 52.00,170.00
             52.00,170.00 52.00,188.00 52.00,188.00
             52.00,188.00 65.61,173.84 65.61,173.84
             67.87,171.41 70.45,168.22 74.00,167.91
             78.08,167.56 87.27,174.90 91.00,177.31
             91.00,177.31 128.00,202.43 128.00,202.43
             134.09,206.67 140.38,208.48 143.00,216.00
             139.28,216.98 125.20,216.00 120.00,216.00
             120.00,216.00 72.12,211.93 66.00,208.29
             59.00,204.12 12.63,158.50 11.46,146.00
             10.58,136.49 26.73,86.76 29.07,83.28
             30.32,81.42 38.38,75.59 40.00,74.00
             43.00,71.67 104.00,47.80 104.00,47.80 Z
           M 127.50,108.00
           C 127.50,108.00 151.75,117.00 151.75,117.00
             151.75,117.00 158.00,135.50 158.00,135.50
             158.00,135.50 139.50,151.00 139.50,151.00
             139.50,151.00 112.25,151.50 112.25,151.50
             112.25,151.50 97.25,135.25 97.25,135.25
             97.25,135.25 104.00,116.25 104.00,116.25
             104.00,116.25 127.50,108.00 127.50,108.00 Z" />
</svg>
