<?xml version="1.0" encoding="UTF-8" standalone="no"?>
<!DOCTYPE svg PUBLIC "-//W3C//DTD SVG 20010904//EN"
              "http://www.w3.org/TR/2001/REC-SVG-20010904/DTD/svg10.dtd">

<svg xmlns="http://www.w3.org/2000/svg"
     width="0.853333in" height="0.853333in"
     viewBox="0 0 256 256">
  <path class="svg-trademark"
        fill="white" stroke="black" stroke-width="1"
        d="M 101.00,84.00
           C 101.00,84.00 93.00,85.49 93.00,85.49
             93.00,85.49 83.00,90.30 83.00,90.30
             78.02,91.93 69.85,91.12 68.47,84.96
             67.49,80.55 71.24,77.21 74.12,74.49
             74.12,74.49 82.99,66.96 82.99,66.96
             87.65,62.41 88.12,60.82 93.67,56.24
             96.78,53.68 97.49,51.65 102.00,51.14
             108.87,50.35 108.58,54.48 113.06,58.08
             113.06,58.08 128.00,68.30 128.00,68.30
             138.56,77.25 137.88,82.36 144.68,92.00
             147.33,95.75 149.77,97.03 152.40,100.17
             156.95,105.57 158.26,108.46 164.00,113.96
             177.37,126.79 189.73,125.95 198.00,142.00
             200.83,139.97 206.36,135.85 206.37,132.00
             206.38,126.56 196.95,123.32 204.00,118.00
             201.83,113.34 201.00,109.27 201.09,103.00
             201.94,100.75 204.73,101.18 206.00,96.73
             206.18,96.82 211.83,95.56 212.73,95.73
             213.24,95.82 210.39,98.35 210.73,98.64
             211.11,98.96 208.93,101.09 209.18,101.55
             209.55,102.20 207.36,104.25 207.64,105.00
             208.01,106.02 214.00,99.80 213.27,101.91
             213.27,101.91 216.00,103.00 216.00,103.00
             216.00,103.00 210.62,112.62 210.62,112.62
             213.32,112.17 216.62,109.12 218.88,109.38
             219.62,112.25 216.50,118.25 221.10,120.00
             221.96,122.59 223.55,125.25 223.60,128.00
             223.73,134.32 216.35,145.18 211.00,148.30
             206.73,150.79 204.12,149.27 201.72,151.60
             200.24,153.03 198.76,157.79 197.52,159.98
             195.38,163.76 191.96,166.26 188.00,167.93
             188.00,167.93 182.00,169.62 182.00,169.62
             172.50,172.48 165.08,173.97 155.00,172.71
             146.39,171.64 145.45,169.36 141.00,169.15
             135.54,168.89 134.80,171.88 126.00,172.00
             113.31,172.16 107.80,168.79 103.00,169.17
             98.13,169.55 96.86,172.40 90.00,171.90
             81.45,171.28 83.75,166.85 73.00,169.00
             69.79,169.65 61.34,172.81 60.35,167.78
             59.77,164.83 61.81,162.88 64.06,161.47
             71.60,156.71 73.01,157.11 78.37,149.00
             80.05,146.44 84.40,140.36 85.28,138.00
             85.28,138.00 86.69,132.00 86.69,132.00
             89.17,124.80 89.75,129.48 90.12,120.00
             90.40,112.91 95.36,107.98 98.39,102.00
             100.53,97.77 101.91,88.63 101.00,84.00 Z
           M 130.00,154.00
           C 127.65,149.28 118.44,141.48 113.00,141.45
             106.33,141.40 94.18,152.94 92.00,159.00
             92.00,159.00 105.00,157.46 105.00,157.46
             105.00,157.46 116.00,152.54 116.00,152.54
             121.03,151.09 125.27,152.53 130.00,154.00 Z
           M 39.64,218.55
           C 39.73,218.64 39.82,212.00 39.64,212.09
             39.64,212.09 28.18,211.73 28.18,211.73
             28.18,211.64 28.27,203.00 28.27,203.18
             28.27,203.00 52.03,202.90 51.94,202.81
             52.21,202.81 51.97,218.44 51.88,218.62
             50.22,220.76 48.62,227.12 39.38,228.62
             39.44,228.69 18.94,228.62 18.81,228.69
             11.18,227.00 9.00,219.36 9.09,219.45
             9.09,219.36 9.26,194.27 9.25,190.00
             11.00,182.38 18.38,180.12 18.38,180.12
             18.50,179.88 29.35,178.14 42.00,180.55
             42.00,180.55 50.44,186.38 50.31,186.12
             48.55,192.64 41.88,191.00 41.75,190.88
             41.88,191.12 36.64,188.45 36.64,188.45
             30.09,186.00 22.03,188.60 21.91,188.73
             21.91,188.73 21.52,204.08 21.55,208.09
             21.56,210.35 20.91,220.27 25.18,220.45
             25.35,220.51 32.73,221.82 39.64,218.55 Z
           M 70.12,208.75
           C 70.12,208.75 69.50,227.38 69.50,227.38
             69.38,227.50 56.36,227.45 56.36,227.09
             56.55,227.45 56.91,182.00 56.55,182.00
             58.25,178.88 66.12,178.38 66.12,178.50
             66.12,178.50 86.38,178.88 86.38,178.88
             86.62,178.88 97.62,181.50 99.25,191.50
             99.00,201.75 88.00,206.00 87.88,206.00
             87.88,206.12 98.25,228.00 98.25,228.25
             98.25,228.25 87.88,228.38 87.88,228.38
             88.00,228.50 78.88,208.62 78.88,208.75
             78.88,208.88 70.25,208.75 70.12,208.75 Z
           M 103.50,188.88
           C 103.50,188.88 104.38,178.38 125.12,179.00
             145.38,177.88 145.25,190.25 145.25,190.25
             145.30,201.53 145.62,219.12 145.38,219.25
             141.62,230.25 127.18,228.87 124.62,228.88
             107.00,229.88 103.62,218.88 103.50,218.62
             103.62,218.75 103.50,188.88 103.50,188.88 Z
           M 160.62,187.88
           C 160.55,188.09 150.00,187.82 149.91,187.82
             149.91,187.82 149.91,179.55 149.82,179.45
             149.82,179.45 186.00,179.88 185.88,179.62
             186.12,180.00 186.00,187.96 185.81,188.06
             185.88,188.33 172.94,188.12 172.94,188.12
             172.94,188.19 172.82,228.36 172.73,228.27
             172.73,228.45 160.73,228.36 160.64,228.45
             160.73,228.45 160.62,187.88 160.62,187.88 Z
           M 247.12,179.62
           C 247.12,179.50 247.38,228.75 247.25,228.75
             247.25,228.88 234.62,229.12 234.62,229.00
             234.62,229.00 234.88,179.50 234.88,179.50
             235.00,179.50 247.38,179.62 247.12,179.62 Z
           M 191.45,179.45
           C 191.45,179.55 228.27,179.82 228.36,179.64
             228.45,179.73 228.36,188.64 228.36,188.55
             228.36,188.64 216.36,188.64 216.27,188.64
             216.27,188.64 216.64,228.73 216.55,228.73
             216.64,228.82 204.37,228.86 204.18,228.64
             204.28,228.68 204.09,188.27 204.00,188.18
             204.00,188.27 191.18,188.18 191.27,188.00
             191.18,188.00 191.45,179.55 191.45,179.45 Z
           M 69.09,199.82
           C 68.91,199.73 88.09,201.73 87.82,194.09
             88.00,186.82 69.18,188.09 69.09,188.18
             69.09,188.18 69.09,199.82 69.09,199.82 Z
           M 124.75,187.25
           C 121.44,187.22 116.82,188.73 116.73,188.55
             116.64,188.64 116.64,218.82 116.64,218.73
             116.59,218.63 120.23,220.73 124.50,220.75
             128.38,220.77 132.97,219.00 132.91,218.91
             133.22,219.01 133.45,188.82 133.36,188.73
             133.36,188.82 128.30,187.28 124.75,187.25 Z" />
</svg>
