<?xml version="1.0" encoding="UTF-8" standalone="no"?>
<!DOCTYPE svg PUBLIC "-//W3C//DTD SVG 20010904//EN"
              "http://www.w3.org/TR/2001/REC-SVG-20010904/DTD/svg10.dtd">

<svg xmlns="http://www.w3.org/2000/svg"
     width="3.41333in" height="0.853333in"
     viewBox="0 0 1024 256">
  <path id="Selección"
        fill="none" stroke="black" stroke-width="1"
        d="M 105.75,45.50
           C 105.75,45.62 136.82,43.98 138.38,45.50
             138.52,45.47 158.45,127.45 158.64,127.27
             158.64,127.18 129.64,127.45 129.55,127.18
             129.55,127.18 127.18,104.27 127.09,104.27
             127.07,104.22 84.91,104.45 85.00,104.36
             85.00,104.27 72.69,126.59 70.27,127.64
             70.36,127.55 53.00,127.82 53.00,127.45
             53.00,127.36 108.45,50.91 108.50,50.88
             108.50,50.88 105.75,45.50 105.75,45.50 Z
           M 425.91,44.64
           C 425.91,44.64 481.36,44.82 481.36,44.64
             481.46,46.35 481.27,58.27 481.09,58.27
             481.27,58.36 471.00,53.27 470.91,53.18
             471.00,53.27 453.82,53.09 453.82,53.09
             453.78,53.31 450.75,53.62 447.73,66.27
             447.77,66.36 444.82,79.45 444.91,79.55
             444.64,79.45 468.45,79.64 468.36,79.73
             468.36,79.82 468.30,84.37 467.45,87.91
             467.36,87.91 444.00,88.18 443.91,88.18
             437.45,89.00 435.09,108.18 434.91,108.18
             435.09,108.00 432.55,120.82 445.00,120.88
             448.39,120.75 475.12,121.12 475.25,120.88
             475.21,120.96 470.20,126.44 469.45,126.91
             467.88,127.87 402.55,127.45 402.36,127.27
             402.36,127.27 408.36,118.36 408.36,118.36
             408.36,118.36 426.88,55.00 426.88,55.00
             426.88,55.00 426.00,44.64 425.91,44.64 Z
           M 156.36,45.45
           C 156.55,46.18 404.18,45.45 404.18,45.45
             404.36,45.64 410.91,57.09 410.73,56.91
             410.73,56.91 161.27,57.09 161.27,57.09
             161.27,56.91 156.36,45.27 156.36,45.45 Z
           M 499.25,45.75
           C 499.25,46.00 1001.49,44.76 1003.27,46.18
             1003.64,46.36 997.82,56.36 997.82,56.18
             997.82,56.18 498.00,55.71 498.00,55.75
             498.00,55.71 499.08,45.76 499.25,45.75 Z
           M 114.91,61.45
           C 115.09,61.27 90.25,97.12 90.25,97.12
             90.25,97.12 125.82,97.64 125.82,97.27
             125.64,97.64 121.64,61.64 121.64,61.64
             121.82,61.82 114.91,61.45 114.91,61.45 Z
           M 174.91,67.45
           C 175.09,67.45 210.36,68.73 210.55,68.55
             208.99,69.55 201.73,73.09 201.82,73.09
             201.78,73.09 196.91,82.55 196.00,86.00
             196.18,86.36 189.45,115.82 189.45,115.82
             187.82,124.55 209.45,122.18 211.82,121.27
             217.31,113.37 222.73,87.82 222.73,87.82
             223.60,84.25 225.50,75.62 225.38,75.50
             225.50,75.62 221.88,67.50 221.50,67.62
             221.50,67.88 253.85,66.66 254.83,68.46
             255.82,70.26 248.75,73.50 249.00,73.38
             246.52,76.28 243.00,91.75 243.00,91.75
             243.00,91.75 240.00,107.25 240.00,107.25
             240.00,107.25 237.91,128.83 235.73,130.64
             235.82,130.82 210.64,130.27 210.64,130.27
             207.31,129.81 212.70,126.43 208.62,127.00
             199.50,127.62 198.25,131.12 183.00,130.25
             176.43,130.28 164.75,128.75 169.45,110.18
             169.45,109.64 178.70,79.92 178.36,77.00
             178.07,74.46 176.34,69.64 174.91,67.45 Z
           M 263.75,74.88
           C 261.12,76.38 259.58,76.78 258.00,77.38
             258.00,77.62 263.50,66.75 263.62,66.75
             263.62,66.75 324.75,67.25 324.75,67.25
             324.75,67.50 324.00,79.50 323.62,79.12
             323.75,79.50 314.62,75.75 314.62,75.62
             314.62,75.62 299.50,75.38 299.38,75.50
             299.38,75.50 287.62,122.75 287.62,122.75
             287.62,123.00 290.38,129.62 290.38,129.88
             290.38,129.88 258.62,130.25 258.62,130.12
             259.12,130.50 267.00,121.12 267.00,121.12
             267.00,121.12 280.25,75.25 280.25,75.00
             280.12,75.12 264.00,75.00 263.75,74.88 Z
           M 364.91,66.91
           C 393.09,64.91 399.45,85.64 397.82,101.82
             384.91,132.91 358.69,131.25 345.64,131.09
             319.45,132.00 315.64,110.73 318.00,99.27
             323.64,85.82 329.45,67.45 364.91,66.91 Z
           M 483.88,130.25
           C 483.88,130.25 490.73,121.64 490.73,121.64
             490.73,121.64 503.27,74.91 503.27,74.91
             503.45,74.91 499.36,66.40 499.36,66.27
             499.24,66.27 505.46,66.01 508.00,66.00
             508.00,66.00 534.00,66.00 534.00,66.00
             541.07,66.00 548.55,65.80 555.00,69.28
             557.43,70.59 559.56,72.51 560.83,75.00
             563.15,79.58 562.53,89.81 558.72,93.47
             554.58,97.45 543.75,100.00 537.75,100.12
             542.96,106.54 559.75,130.38 559.75,130.38
             559.62,130.12 538.12,130.12 538.00,130.12
             537.88,130.25 522.50,106.25 522.50,106.12
             522.50,106.25 513.62,105.88 513.62,106.00
             513.79,106.00 510.75,124.00 510.50,124.00
             513.75,127.88 514.71,130.33 514.62,130.38
             514.88,130.38 484.00,130.38 483.88,130.25 Z
           M 605.00,66.53
           C 616.48,64.66 633.57,65.90 642.83,73.61
             650.58,80.06 651.99,95.95 648.67,105.00
             646.87,109.93 642.00,118.18 634.00,123.06
             634.00,123.06 622.73,132.00 598.00,130.85
             586.71,130.86 573.37,125.28 569.14,114.00
             566.26,106.32 570.95,88.64 575.47,82.01
             583.47,70.26 597.09,67.27 605.00,66.53 Z
           M 655.12,76.88
           C 655.25,76.75 661.38,67.38 661.12,67.50
             661.25,67.62 723.12,67.38 723.12,67.38
             723.25,67.50 722.00,78.75 722.12,78.62
             711.88,78.75 716.94,74.10 713.25,74.12
             713.25,74.12 698.00,74.00 697.88,73.88
             698.00,73.88 684.88,124.62 684.88,124.62
             685.12,124.62 689.50,130.25 689.50,130.12
             689.50,130.38 656.62,130.62 656.62,130.38
             656.50,130.25 663.88,122.86 663.88,122.50
             663.88,122.50 678.50,74.00 678.25,74.00
             678.25,73.88 665.00,74.00 664.75,74.12
             660.50,74.12 663.12,77.62 655.12,76.88 Z
           M 714.50,130.38
           C 715.12,125.00 716.50,128.75 719.50,125.00
             719.50,125.00 736.00,72.00 735.88,71.88
             732.00,71.88 728.62,76.25 731.75,67.38
             731.88,67.62 759.16,67.49 763.38,67.50
             761.75,76.25 764.25,72.38 756.38,72.25
             756.38,72.25 741.00,124.75 741.00,124.75
             738.62,127.88 747.62,124.75 744.67,130.26
             744.62,130.62 714.62,130.62 714.50,130.38 Z
           M 801.00,66.46
           C 815.50,65.50 828.99,67.29 833.64,69.27
             834.38,69.31 833.45,81.45 833.09,81.27
             823.45,81.09 828.00,77.27 822.91,76.18
             819.14,74.13 815.22,74.85 811.00,75.04
             800.06,75.52 789.09,79.45 786.18,102.18
             784.73,122.00 799.82,126.18 816.55,121.45
             823.09,120.73 820.91,114.73 824.36,123.09
             824.02,128.68 802.25,133.25 783.00,128.33
             767.00,122.25 760.00,113.75 763.00,94.75
             767.00,74.00 791.25,67.00 801.00,66.46 Z
           M 826.38,129.88
           C 828.52,124.25 866.62,77.47 866.62,75.00
             866.75,70.88 861.88,73.00 865.88,66.88
             865.75,66.88 893.26,67.33 893.12,67.12
             893.12,67.38 907.75,131.00 907.75,131.00
             907.75,131.00 880.25,131.00 880.38,130.75
             879.00,122.75 886.00,134.00 881.25,113.62
             881.38,113.75 851.88,113.50 851.88,113.38
             851.88,113.38 842.62,125.75 842.50,125.75
             846.38,132.62 844.38,128.62 826.38,129.88 Z
           M 362.55,74.55
           C 346.91,74.36 343.75,90.50 342.00,98.55
             340.25,116.00 342.55,122.91 351.45,123.27
             368.00,122.36 372.62,109.88 373.83,100.00
             374.75,89.00 377.50,75.12 362.55,74.55 Z
           M 610.00,75.35
           C 602.75,75.50 593.27,85.64 592.00,103.82
             592.00,109.45 591.45,122.55 604.55,123.09
             616.55,122.91 623.07,104.37 623.83,101.00
             625.88,85.25 624.38,75.75 610.00,75.35 Z
           M 517.73,98.27
           C 532.45,97.91 535.64,92.00 536.36,84.91
             536.82,77.18 531.36,78.27 522.18,78.27
             522.18,78.45 517.55,98.45 517.73,98.27 Z
           M 862.38,103.88
           C 862.62,104.00 880.25,104.50 880.25,104.25
             880.25,104.52 878.50,86.00 878.38,86.25
             878.38,86.12 870.75,86.12 870.75,86.12
             870.75,86.00 862.50,103.75 862.38,103.88 Z
           M 927.25,67.75
           C 924.18,80.00 932.91,71.27 930.36,76.91
             930.36,76.91 917.64,124.00 917.45,123.64
             917.27,124.00 911.82,124.73 911.27,130.55
             911.27,130.55 940.18,131.27 940.00,130.91
             944.36,120.36 934.73,136.73 940.73,110.18
             940.73,110.00 943.09,102.82 946.36,102.73
             950.00,102.91 962.55,129.82 962.55,129.82
             962.55,129.82 989.82,130.73 989.82,130.73
             989.82,130.73 966.73,101.09 966.55,101.27
             973.27,101.09 983.82,98.36 987.27,83.82
             987.45,77.45 985.27,68.73 973.09,68.00
             973.27,68.36 927.27,68.18 927.25,67.75 Z
           M 946.55,96.00
           C 946.55,96.00 952.36,76.55 952.36,76.55
             952.73,76.91 969.45,75.09 966.91,87.27
             963.82,100.18 946.73,96.18 946.55,96.00 Z" />
</svg>
