<?xml version="1.0" encoding="UTF-8" standalone="no"?>
<!DOCTYPE svg PUBLIC "-//W3C//DTD SVG 20010904//EN"
              "http://www.w3.org/TR/2001/REC-SVG-20010904/DTD/svg10.dtd">

<svg xmlns="http://www.w3.org/2000/svg"
     width="0.853333in" height="0.853333in"
     viewBox="0 0 256 256">
  <path class="svg-trademark"
        fill="white" stroke="black" stroke-width="1"
        d="M 17.64,50.55
           C 17.64,50.73 127.38,74.50 127.38,74.50
             131.47,75.03 238.75,51.50 238.50,51.38
             238.75,51.62 239.05,204.16 239.27,204.09
             239.14,203.98 132.49,178.86 126.73,179.64
             126.73,179.64 17.45,204.00 17.45,203.82
             17.45,204.18 17.64,50.73 17.64,50.55 Z
           M 229.18,193.18
           C 229.18,193.18 229.38,61.75 229.00,61.50
             229.12,61.62 133.53,83.35 127.50,83.00
             127.50,83.00 26.50,60.62 26.50,60.62
             26.50,60.62 26.91,193.45 26.91,193.45
             26.91,193.45 127.36,171.00 127.36,171.00
             127.36,171.00 229.18,193.18 229.18,193.18 Z
           M 33.09,66.82
           C 33.09,66.91 58.73,71.73 58.55,71.73
             58.55,71.91 59.82,182.00 59.73,181.91
             59.91,182.00 33.55,186.00 33.55,185.91
             33.55,186.09 33.82,149.09 33.82,149.09
             33.91,149.18 42.36,148.09 42.27,148.00
             42.18,148.18 42.45,100.18 42.45,100.18
             42.61,100.09 32.82,100.18 32.91,100.36
             33.00,100.73 33.09,66.91 33.09,66.82 Z
           M 222.00,66.73
           C 222.00,66.82 221.95,99.47 221.82,99.45
             221.77,99.56 212.95,100.14 212.82,100.18
             212.68,100.23 213.27,149.18 213.27,149.18
             213.18,149.36 222.82,149.45 222.73,149.45
             222.91,149.55 223.10,187.01 223.27,186.91
             223.19,187.10 196.61,181.06 196.27,181.09
             196.52,180.97 196.71,72.68 196.82,72.73
             196.89,72.86 221.82,67.09 222.00,66.73 Z
           M 65.55,74.00
           C 65.66,74.16 92.82,79.64 92.73,79.64
             92.73,79.73 92.86,174.56 92.88,174.50
             92.86,174.56 65.40,179.95 65.38,179.94
             65.40,180.14 65.62,142.50 65.56,142.50
             65.62,142.62 75.56,141.56 75.56,141.38
             75.50,141.38 75.18,108.55 75.18,108.55
             75.09,108.55 65.45,108.18 65.45,108.18
             65.55,108.18 65.66,73.98 65.55,74.00 Z
           M 190.64,73.91
           C 190.73,74.18 190.45,106.55 190.45,106.27
             190.55,106.27 179.45,107.55 179.36,107.55
             179.27,107.64 179.00,142.91 179.00,142.64
             179.09,142.73 190.64,142.73 190.64,142.64
             190.82,142.64 191.01,179.78 191.00,179.82
             190.92,179.78 163.82,175.00 163.64,174.91
             163.64,175.09 164.27,79.73 164.18,79.73
             164.27,79.91 190.73,74.00 190.64,73.91 Z
           M 157.50,81.12
           C 157.77,81.43 157.35,112.60 157.38,112.38
             157.35,112.47 146.88,112.88 146.88,112.75
             146.75,113.00 146.50,136.38 146.50,136.12
             146.62,136.25 158.62,136.75 158.62,136.75
             158.62,136.88 158.38,174.62 158.50,174.38
             158.50,174.38 130.35,167.94 130.38,167.62
             130.48,167.69 130.83,86.35 130.88,86.25
             130.95,86.35 157.65,81.43 157.50,81.12 Z
           M 97.55,80.45
           C 97.64,80.45 125.18,86.27 125.09,86.27
             125.18,86.36 125.00,168.75 125.00,168.62
             125.12,168.62 97.75,173.12 97.75,173.25
             97.50,173.38 98.53,136.64 98.25,136.62
             98.28,136.64 108.09,135.36 108.00,135.38
             107.91,135.45 108.09,114.73 107.91,114.73
             107.91,114.91 97.64,112.91 97.55,112.91
             97.45,113.00 97.73,80.45 97.55,80.45 Z" />
</svg>
