<?xml version="1.0" encoding="UTF-8" standalone="no"?>
<!DOCTYPE svg PUBLIC "-//W3C//DTD SVG 20010904//EN"
              "http://www.w3.org/TR/2001/REC-SVG-20010904/DTD/svg10.dtd">

<svg xmlns="http://www.w3.org/2000/svg"
     width="0.853333in" height="0.853333in"
     viewBox="0 0 256 256">
  <path class="svg-trademark"
        fill="white" stroke="black" stroke-width="1"
        d="M 118.00,40.59
           C 131.34,40.70 144.98,40.84 158.00,44.04
             158.00,44.04 165.00,46.37 165.00,46.37
             171.10,48.03 169.55,45.57 179.00,49.92
             193.75,56.72 206.22,62.89 218.00,74.32
             229.09,85.09 239.68,101.42 241.85,117.00
             241.85,117.00 241.85,132.00 241.85,132.00
             241.85,132.00 240.37,148.00 240.37,148.00
             235.96,163.95 220.09,181.95 207.00,191.51
             191.42,202.89 178.17,207.15 160.00,211.92
             155.87,213.01 153.55,214.11 149.00,214.71
             138.76,216.06 128.32,216.12 118.00,216.00
             118.00,216.00 103.00,214.28 103.00,214.28
             65.25,209.58 23.33,186.64 11.98,148.00
             11.98,148.00 9.61,126.00 9.61,126.00
             9.61,126.00 10.91,118.00 10.91,118.00
             10.91,118.00 11.53,111.00 11.53,111.00
             12.85,105.22 18.59,93.26 21.99,88.29
             29.08,77.94 44.11,64.73 55.00,58.52
             55.00,58.52 68.00,52.55 68.00,52.55
             74.97,49.38 83.48,45.87 91.00,44.38
             91.00,44.38 102.00,43.68 102.00,43.68
             108.89,42.53 106.54,41.56 118.00,40.59 Z
           M 73.00,187.00
           C 80.82,190.28 96.99,196.96 105.00,197.96
             105.00,197.96 115.00,197.96 115.00,197.96
             115.00,197.96 124.00,198.99 124.00,198.99
             128.88,199.10 130.50,198.60 135.00,198.00
             135.00,198.00 144.00,198.00 144.00,198.00
             150.35,197.22 163.17,194.07 169.00,191.54
             181.19,186.26 190.17,182.59 200.00,172.99
             205.27,167.84 210.24,162.58 213.70,156.00
             230.32,124.45 216.63,95.05 189.00,75.92
             184.99,73.14 168.59,64.94 164.00,63.51
             164.00,63.51 148.00,59.99 148.00,59.99
             143.52,59.02 139.62,57.43 135.00,57.09
             128.07,56.58 110.05,58.22 103.00,59.54
             94.77,61.08 77.56,66.25 71.00,71.00
             71.00,71.00 97.00,70.22 97.00,70.22
             97.00,70.22 105.00,70.96 105.00,70.96
             105.00,70.96 117.00,70.32 117.00,70.32
             117.00,70.32 130.00,71.00 130.00,71.00
             140.23,71.02 138.55,71.77 147.00,72.82
             147.00,72.82 154.00,73.55 154.00,73.55
             154.00,73.55 175.00,81.85 175.00,81.85
             187.22,88.42 200.58,102.41 204.37,116.00
             205.86,121.36 205.97,129.47 205.28,135.00
             205.28,135.00 204.51,141.00 204.51,141.00
             203.51,144.61 197.85,153.86 195.49,157.00
             191.89,161.80 188.81,165.20 183.96,168.72
             174.19,175.81 157.06,183.51 145.00,184.83
             145.00,184.83 130.00,185.96 130.00,185.96
             130.00,185.96 121.00,185.32 121.00,185.32
             121.00,185.32 109.00,186.00 109.00,186.00
             109.00,186.00 97.00,185.03 97.00,185.03
             97.00,185.03 84.00,186.00 84.00,186.00
             80.15,186.02 76.62,185.57 73.00,187.00 Z
           M 120.69,168.06
           C 120.69,168.06 120.69,148.00 120.69,148.00
             120.69,148.00 120.69,141.00 120.69,141.00
             120.69,141.00 120.69,134.00 120.69,134.00
             120.69,134.00 120.69,128.00 120.69,128.00
             120.69,128.00 120.69,119.00 120.69,119.00
             120.69,119.00 120.69,113.00 120.69,113.00
             120.69,113.00 120.69,104.00 120.69,104.00
             120.69,104.00 120.69,94.00 120.69,94.00
             120.86,92.28 120.72,90.17 119.26,88.99
             118.01,87.98 112.76,87.62 111.00,87.76
             111.00,87.76 99.00,87.76 99.00,87.76
             99.00,87.76 59.00,88.85 59.00,88.85
             54.42,89.02 50.69,87.10 47.09,88.85
             42.75,91.34 38.94,99.65 36.59,104.00
             28.33,119.27 29.37,141.34 38.48,156.00
             40.51,159.26 43.77,165.18 47.09,166.98
             49.19,168.12 61.17,169.06 64.00,168.93
             64.00,168.93 78.00,168.93 78.00,168.93
             81.82,168.69 83.55,167.84 88.00,168.09
             88.00,168.09 101.00,169.00 101.00,169.00
             101.00,169.00 112.00,168.06 112.00,168.06
             116.01,168.01 116.35,168.75 120.69,168.06 Z
           M 143.00,167.00
           C 156.82,163.40 167.55,161.16 176.80,148.91
             178.34,146.86 180.67,143.41 181.45,141.00
             182.08,139.06 183.85,128.89 183.64,127.00
             181.76,110.47 170.02,97.12 154.00,92.78
             148.79,91.36 147.45,89.75 142.00,91.00
             142.00,91.00 143.00,118.00 143.00,118.00
             143.00,118.00 143.00,167.00 143.00,167.00 Z" />
</svg>
