<?xml version="1.0" encoding="UTF-8" standalone="no"?>
<!DOCTYPE svg PUBLIC "-//W3C//DTD SVG 20010904//EN"
              "http://www.w3.org/TR/2001/REC-SVG-20010904/DTD/svg10.dtd">

<svg xmlns="http://www.w3.org/2000/svg"
     width="0.853333in" height="0.853333in"
     viewBox="0 0 256 256">
  <path class="svg-trademark"
        fill="white" stroke="black" stroke-width="1"
        d="M 126.00,39.42
           C 137.48,38.03 154.75,40.29 166.00,43.11
             166.00,43.11 182.00,47.54 182.00,47.54
             207.73,56.70 231.42,76.41 239.91,103.00
             242.15,110.03 242.08,122.46 242.00,130.00
             241.89,138.86 239.64,145.17 235.75,153.00
             224.23,176.20 198.44,193.18 174.00,200.43
             174.00,200.43 165.00,202.47 165.00,202.47
             165.00,202.47 156.00,204.89 156.00,204.89
             156.00,204.89 148.00,204.89 148.00,204.89
             148.00,204.89 120.00,206.00 120.00,206.00
             82.66,205.56 39.39,185.08 24.73,149.00
             22.20,142.77 19.37,133.77 19.34,127.00
             19.34,127.00 19.91,121.00 19.91,121.00
             20.39,113.78 19.28,112.63 21.86,105.00
             24.77,96.42 25.26,93.84 30.52,86.00
             47.60,60.52 74.69,47.35 104.00,41.28
             104.00,41.28 126.00,39.42 126.00,39.42 Z
           M 122.00,54.28
           C 122.00,54.28 110.00,55.67 110.00,55.67
             86.75,60.60 60.16,74.34 51.43,98.00
             47.21,109.89 46.85,123.07 51.43,135.00
             52.82,138.98 55.60,142.62 58.13,146.00
             67.76,158.85 80.05,168.60 97.00,166.03
             113.19,163.57 126.96,149.50 114.47,134.04
             108.65,126.84 100.82,127.87 91.29,117.00
             75.00,98.41 85.80,76.72 106.00,67.32
             111.43,64.80 120.03,62.08 126.00,62.00
             126.00,62.00 135.00,62.00 135.00,62.00
             158.30,62.11 189.34,84.46 174.64,110.00
             171.43,115.58 165.43,121.43 160.00,124.88
             153.91,128.75 147.80,130.65 144.53,138.01
             137.93,152.87 152.40,164.45 166.00,165.83
             170.94,166.33 177.31,166.13 182.00,164.45
             198.65,158.51 213.91,136.71 214.00,119.00
             214.00,119.00 214.00,115.00 214.00,115.00
             213.87,90.33 193.13,71.40 172.00,62.17
             166.59,59.80 163.47,59.20 158.00,57.71
             158.00,57.71 150.00,55.33 150.00,55.33
             145.53,54.55 126.81,53.84 122.00,54.28 Z
           M 126.00,77.30
           C 121.85,78.08 117.63,79.09 114.00,81.34
             111.69,82.76 109.08,84.96 107.34,87.04
             103.99,91.05 103.87,94.01 104.02,99.00
             104.41,112.76 123.00,120.29 135.00,118.82
             146.14,117.45 157.99,110.27 157.99,98.00
             157.99,93.07 156.90,89.88 153.62,86.09
             146.85,78.26 135.77,76.33 126.00,77.30 Z" />
</svg>
