<?xml version="1.0" encoding="UTF-8" standalone="no"?>
<!DOCTYPE svg PUBLIC "-//W3C//DTD SVG 20010904//EN"
              "http://www.w3.org/TR/2001/REC-SVG-20010904/DTD/svg10.dtd">

<svg xmlns="http://www.w3.org/2000/svg"
     width="0.853333in" height="0.853333in"
     viewBox="0 0 256 256">
  <path class="svg-trademark"
        fill="white" stroke="black" stroke-width="1"
        d="M 126.00,48.41
           C 130.67,47.78 150.35,47.64 155.00,48.41
             155.00,48.41 175.00,51.67 175.00,51.67
             187.17,54.26 206.11,62.18 216.00,69.66
             230.66,80.77 239.35,92.31 244.42,110.00
             246.01,115.55 247.20,120.15 246.96,126.00
             246.51,137.09 240.06,152.23 233.40,161.00
             218.49,180.64 188.19,194.45 164.00,197.71
             151.74,199.37 115.93,197.73 110.00,196.42
             89.76,191.98 76.34,186.45 60.00,173.33
             54.81,169.17 50.09,163.67 46.61,158.00
             45.36,155.96 43.22,151.27 40.79,150.73
             38.46,150.22 34.84,152.92 33.00,154.20
             29.27,156.79 25.25,159.85 22.04,163.04
             20.18,164.88 17.36,168.59 14.92,169.34
             11.67,170.35 9.48,168.10 9.24,164.98
             9.01,162.06 11.80,154.60 13.27,152.00
             15.66,147.76 21.00,142.01 25.00,139.22
             28.05,137.10 33.12,135.19 34.79,131.90
             34.79,131.90 35.92,119.00 35.92,119.00
             37.55,109.23 39.75,101.59 44.87,93.00
             54.96,76.03 77.28,61.24 96.00,55.38
             96.00,55.38 110.00,51.52 110.00,51.52
             110.00,51.52 126.00,48.41 126.00,48.41 Z
           M 198.00,73.00
           C 193.93,66.13 177.56,63.47 170.00,61.63
             140.67,54.47 100.12,60.86 77.00,81.18
             67.05,89.93 59.07,99.84 56.21,113.00
             55.63,115.68 53.71,122.26 55.69,124.43
             57.71,126.57 61.58,125.06 64.00,124.43
             71.61,122.63 76.29,122.91 84.00,123.00
             84.00,123.00 101.00,123.99 101.00,123.99
             103.04,124.21 105.77,124.89 107.62,123.99
             109.40,122.93 111.90,118.78 113.12,117.00
             117.58,110.51 117.73,109.77 123.29,103.83
             128.28,98.51 133.21,93.15 139.00,88.68
             149.06,80.90 172.21,70.09 185.00,70.08
             189.49,70.07 193.85,71.43 198.00,73.00 Z
           M 207.00,76.00
           C 207.00,76.00 206.00,76.00 206.00,76.00
             206.00,76.00 207.00,77.00 207.00,77.00
             207.00,77.00 207.00,76.00 207.00,76.00 Z
           M 208.00,77.00
           C 208.74,82.45 213.55,85.00 212.91,96.00
             211.79,115.23 195.75,136.80 178.00,143.80
             166.53,148.32 159.33,150.06 147.00,150.00
             141.48,149.97 138.27,149.58 133.00,147.77
             130.63,146.96 125.69,144.78 123.31,145.69
             120.36,146.82 120.97,152.40 121.00,155.00
             121.14,166.86 129.16,178.10 140.00,182.79
             142.81,184.01 144.25,183.99 147.00,184.78
             152.41,186.33 151.86,186.91 158.00,187.00
             169.78,187.15 165.96,186.66 176.00,184.52
             176.00,184.52 183.00,183.54 183.00,183.54
             204.72,178.54 223.81,165.76 232.85,145.00
             236.18,137.34 239.27,127.42 237.48,119.00
             236.37,113.76 232.78,103.62 230.12,99.00
             225.50,90.97 216.01,81.66 208.00,77.00 Z
           M 179.00,79.29
           C 159.41,82.59 143.04,95.81 132.09,112.00
             129.97,115.12 123.42,125.26 124.13,128.86
             124.73,131.94 129.44,132.57 132.00,133.42
             139.67,135.99 152.00,138.94 160.00,137.79
             162.52,137.43 164.60,136.53 167.00,135.74
             180.32,131.38 193.86,123.96 200.60,111.00
             205.59,101.39 205.73,87.14 195.00,81.44
             190.11,78.85 184.36,78.78 179.00,79.29 Z
           M 106.00,183.00
           C 102.46,176.86 98.79,167.19 99.10,160.00
             99.10,160.00 101.31,142.31 101.31,142.31
             100.28,139.64 96.32,140.02 94.00,140.00
             81.80,139.92 69.13,138.30 58.00,144.00
             62.19,156.61 78.81,170.39 90.00,176.93
             94.42,179.52 100.90,182.99 106.00,183.00 Z" />
</svg>
