<?xml version="1.0" encoding="UTF-8" standalone="no"?>
<!DOCTYPE svg PUBLIC "-//W3C//DTD SVG 20010904//EN"
              "http://www.w3.org/TR/2001/REC-SVG-20010904/DTD/svg10.dtd">

<svg xmlns="http://www.w3.org/2000/svg"
     width="0.853333in" height="0.853333in"
     viewBox="0 0 256 256">
  <style type="text/css">     
      .svg-trademark
      {
          fill:url('#MyGradient');
      }
      div.trademark-logo:hover .svg-trademark { 
          fill: red;
      }       
  </style>
  <path class="svg-trademark"
        fill="url('#MyGradient')" stroke="black" stroke-width="1"
        d="M 93.00,57.70
           C 93.00,57.70 175.00,58.82 175.00,58.86
             175.09,58.82 236.01,109.03 236.00,109.12
             235.97,109.12 132.06,210.62 132.01,210.63
             132.00,210.69 28.55,106.00 28.33,106.04
             28.55,106.00 93.09,57.82 93.00,57.70 Z
           M 48.00,106.00
           C 48.00,106.00 131.50,191.44 131.45,191.45
             131.50,191.44 214.36,107.36 214.36,107.27
             214.45,107.36 172.78,74.56 168.00,72.87
             165.37,71.95 93.64,71.82 93.64,71.82
             93.64,71.82 48.00,106.00 48.00,106.00 Z
           M 125.45,175.64
           C 125.45,175.64 63.27,108.00 63.45,107.82
             63.64,107.64 99.45,80.91 99.45,80.91
             99.45,81.09 126.36,80.91 126.36,80.91
             126.55,80.73 127.39,176.90 125.45,175.64 Z
           M 136.12,175.12
           C 136.25,175.00 137.12,80.38 137.00,80.25
             137.12,80.62 166.62,80.75 166.50,80.62
             166.62,80.50 200.33,108.33 200.25,108.50
             200.33,108.46 136.12,175.12 136.12,175.12 Z
           M 112.09,106.00
           C 112.00,105.91 112.27,94.00 112.27,93.91
             112.36,94.09 101.73,93.91 101.64,93.82
             101.64,93.91 85.27,105.45 85.09,105.64
             85.09,105.64 112.09,106.00 112.09,106.00 Z
           M 177.00,106.00
           C 172.88,101.38 161.45,94.00 161.50,94.00
             161.55,94.09 159.25,93.88 150.38,93.75
             150.38,93.75 150.50,106.38 150.50,106.38
             150.50,106.38 177.00,106.00 177.00,106.00 Z
           M 113.00,141.00
           C 112.94,141.06 112.50,119.25 112.38,119.12
             112.38,119.38 92.00,119.26 92.00,119.16
             92.00,119.25 113.00,141.12 113.00,141.00 Z
           M 173.55,118.09
           C 173.55,118.09 150.49,118.61 150.36,118.64
             150.36,118.64 150.18,141.45 150.18,141.45
             149.91,141.45 173.64,118.18 173.55,118.09 Z" />
  <defs>
    <linearGradient id="MyGradient" gradientTransform="rotate(75)">
      <stop offset="35%" stop-color="#f1f1f3" />
      <stop offset="65%" stop-color="#959799" />
      <stop offset="99%" stop-color="#f1f1f3" />
    </linearGradient>
  </defs>
</svg>
