<?xml version="1.0" encoding="UTF-8" standalone="no"?>
<!DOCTYPE svg PUBLIC "-//W3C//DTD SVG 20010904//EN"
              "http://www.w3.org/TR/2001/REC-SVG-20010904/DTD/svg10.dtd">

<svg xmlns="http://www.w3.org/2000/svg"
     width="3.41333in" height="0.853333in"
     viewBox="0 0 1024 256">
  <path id="Selección"
        fill="none" stroke="black" stroke-width="1"
        d="M 28.50,159.50
           C 30.44,153.67 90.63,154.01 96.00,154.00
             96.00,154.00 183.00,153.83 183.00,153.83
             194.21,154.69 190.12,145.92 194.03,137.00
             200.22,122.85 208.86,114.39 221.00,105.13
             226.10,101.24 246.00,92.21 246.00,92.21
             246.00,92.21 262.00,87.52 262.00,87.52
             262.00,87.52 280.00,83.29 280.00,83.29
             286.73,81.87 305.37,81.91 313.00,82.00
             329.73,82.20 336.67,84.67 351.00,92.95
             351.00,92.95 515.65,67.02 531.00,67.00
             531.00,67.00 563.00,67.00 563.00,67.00
             563.00,67.00 578.00,68.00 578.00,68.00
             578.00,68.00 624.13,73.94 628.00,73.59
             642.00,66.25 658.00,64.20 658.00,64.20
             658.00,64.20 682.00,64.20 682.00,64.20
             704.18,65.64 720.00,78.41 720.00,78.41
             720.00,78.41 737.00,81.67 737.00,81.67
             744.58,83.03 752.33,82.99 760.00,83.00
             760.00,83.00 879.00,88.99 879.00,88.99
             885.13,88.88 893.00,92.00 893.00,92.00
             884.90,94.67 879.32,93.99 871.00,94.00
             871.00,94.00 772.50,94.00 772.50,94.00
             772.75,94.00 785.62,101.50 786.75,116.38
             786.88,116.50 903.00,118.00 903.00,118.00
             903.00,118.00 933.74,119.38 938.00,123.00
             930.66,125.68 927.49,124.92 920.00,125.00
             920.00,125.00 801.17,128.00 786.00,130.00
             787.09,144.64 784.00,149.55 784.00,149.55
             784.00,149.55 934.00,156.00 934.00,156.00
             931.22,160.16 924.64,159.94 920.00,160.00
             920.00,160.00 780.00,161.00 780.00,161.00
             768.00,159.82 767.82,166.55 754.00,170.38
             734.18,176.91 714.36,173.82 714.36,173.82
             714.36,174.00 707.00,176.43 699.00,178.97
             688.86,182.20 673.36,184.94 663.00,182.00
             665.54,175.07 668.35,177.27 674.00,174.93
             679.33,172.72 688.15,166.89 693.00,163.49
             700.28,158.38 710.67,145.93 714.57,138.00
             714.57,138.00 719.00,127.00 719.00,127.00
             704.89,123.44 668.91,126.36 668.91,126.36
             675.27,119.64 680.26,121.50 685.82,120.73
             699.73,118.75 716.03,121.29 718.52,115.85
             720.05,112.50 718.09,108.12 716.86,105.00
             711.96,92.59 711.24,92.68 700.00,85.03
             694.21,81.09 681.87,75.04 675.00,74.09
             675.00,74.09 659.82,70.00 643.00,76.80
             637.22,79.86 628.31,85.57 623.05,89.50
             621.08,90.97 609.20,101.12 607.12,101.12
             607.25,100.88 616.00,87.88 616.00,88.00
             606.79,84.46 542.00,78.00 542.00,78.00
             542.00,78.00 531.00,77.37 531.00,77.37
             531.00,77.37 356.00,102.00 356.00,102.00
             364.50,109.25 367.25,119.25 370.04,122.69
             376.05,124.28 394.00,121.00 434.25,118.25
             454.25,117.25 509.00,118.09 509.00,118.09
             509.00,118.09 521.00,118.09 521.00,118.09
             521.00,118.09 537.76,117.42 540.00,124.00
             540.00,124.00 526.00,124.97 526.00,124.97
             526.00,124.97 501.00,125.96 501.00,125.96
             501.00,125.96 446.00,126.00 446.00,126.00
             446.00,126.00 378.00,128.58 378.00,128.58
             378.00,128.58 367.60,130.60 367.60,130.60
             367.60,130.60 363.00,150.00 363.00,150.00
             363.00,150.00 382.00,149.00 382.00,149.00
             382.00,149.00 428.00,149.00 428.00,149.00
             428.00,149.00 445.00,148.00 445.00,148.00
             445.00,148.00 526.00,148.00 526.00,148.00
             526.00,148.00 556.00,146.06 556.00,146.06
             556.00,146.06 587.00,146.06 587.00,146.06
             594.28,145.86 594.92,144.86 602.98,146.98
             604.52,147.38 620.64,164.72 620.64,164.72
             622.63,167.03 623.58,169.72 620.64,171.71
             616.62,174.33 387.00,167.00 387.00,167.00
             378.21,166.96 357.00,165.09 357.00,165.09
             346.41,165.18 347.55,169.96 339.99,174.65
             326.92,182.77 307.29,186.91 301.00,187.00
             294.66,187.08 285.81,188.75 281.00,184.00
             294.88,176.92 304.53,181.78 320.00,169.49
             333.19,159.00 346.71,136.35 340.43,119.00
             339.72,117.03 338.68,115.75 337.64,114.00
             335.30,110.06 322.30,104.42 319.00,104.95
             319.00,104.95 310.00,104.95 310.00,104.95
             310.00,104.95 302.00,105.96 302.00,105.96
             288.62,106.55 260.91,112.16 248.00,116.34
             248.00,116.34 227.00,124.35 227.00,124.35
             220.36,126.87 210.91,130.22 206.51,136.04
             206.51,136.04 200.08,146.60 200.00,153.00
             207.07,153.51 228.28,152.02 232.96,153.89
             236.42,155.27 241.96,161.63 238.97,165.39
             237.51,167.22 221.68,164.06 217.00,164.00
             217.00,164.00 32.81,160.07 28.50,159.50 Z
           M 765.00,114.17
           C 763.83,103.09 753.62,89.67 732.62,89.79
             732.62,89.79 745.45,102.66 744.62,114.29
             744.62,114.29 759.82,115.09 765.00,114.17 Z
           M 730.45,157.50
           C 756.88,154.75 764.54,126.53 764.50,126.25
             764.41,126.65 744.27,126.14 744.27,126.05
             743.45,146.95 730.64,157.68 730.45,157.50 Z" />
</svg>
